<?xml version="1.0" standalone="no"?><!DOCTYPE svg PUBLIC "-//W3C//DTD SVG 1.1//EN" "http://www.w3.org/Graphics/SVG/1.1/DTD/svg11.dtd"><svg class="icon" width="200px" height="200.00px" viewBox="0 0 1024 1024" version="1.1" xmlns="http://www.w3.org/2000/svg"><path fill="#333333" d="M128 640 554.666667 640C578.133333 640 597.333333 659.2 597.333333 682.666667 597.333333 706.133333 578.133333 725.333333 554.666667 725.333333L128 725.333333C104.533333 725.333333 85.333333 706.133333 85.333333 682.666667 85.333333 659.2 104.533333 640 128 640M682.666667 640 896 640C919.466667 640 938.666667 659.2 938.666667 682.666667 938.666667 706.133333 919.466667 725.333333 896 725.333333L682.666667 725.333333C659.2 725.333333 640 706.133333 640 682.666667 640 659.2 659.2 640 682.666667 640M42.666667 512C42.666667 394.24 138.24 298.666667 256 298.666667 298.666667 198.4 396.8 128 512 128 658.346667 128 778.24 241.493333 789.333333 385.28L810.666667 384C904.106667 384 980.053333 459.093333 981.333333 554.666667L896 554.666667C896 507.733333 857.6 469.333333 810.666667 469.333333L725.333333 469.333333 725.333333 426.666667C725.333333 308.906667 629.76 213.333333 512 213.333333 405.333333 213.333333 317.866667 290.986667 301.226667 392.106667 287.146667 386.986667 271.786667 384 256 384 185.173333 384 128 441.173333 128 512 128 526.933333 130.56 541.44 135.253333 554.666667L46.933333 554.666667 42.666667 512M128 810.666667 213.333333 810.666667C236.8 810.666667 256 829.866667 256 853.333333 256 876.8 236.8 896 213.333333 896L128 896C104.533333 896 85.333333 876.8 85.333333 853.333333 85.333333 829.866667 104.533333 810.666667 128 810.666667M341.333333 810.666667 896 810.666667C919.466667 810.666667 938.666667 829.866667 938.666667 853.333333 938.666667 876.8 919.466667 896 896 896L341.333333 896C317.866667 896 298.666667 876.8 298.666667 853.333333 298.666667 829.866667 317.866667 810.666667 341.333333 810.666667Z" /></svg>