<?xml version="1.0" standalone="no"?><!DOCTYPE svg PUBLIC "-//W3C//DTD SVG 1.1//EN" "http://www.w3.org/Graphics/SVG/1.1/DTD/svg11.dtd"><svg class="icon" width="200px" height="200.00px" viewBox="0 0 1024 1024" version="1.1" xmlns="http://www.w3.org/2000/svg"><path fill="#333333" d="M958.452202 461.585065c-1.706667-41.984-17.6128-83.694933-48.093866-117.248-30.344533-33.416533-70.075733-53.248-111.547733-59.0848 64.887466-30.3104 140.936533-34.850133 211.217066-8.635733-22.9376-57.344-65.365333-107.3152-123.938133-138.888533-132.915199-71.441066-298.495999-21.7088-369.937065 111.138133C487.514604 302.079999 477.206337 357.614932 483.418604 409.599998c-13.755733-0.750933-27.579733-2.56-41.3696-6.656-84.514133-25.122133-146.158933-105.984-138.649599-190.566399C302.853271 212.650666 302.341271 212.957866 301.829271 213.265066c0.8192-5.290667 1.604267-10.581333 1.604267-16.042667 0-5.973333-0.750933-11.741867-1.7408-17.442133C320.227138 174.045866 333.743938 156.945066 333.743938 136.533333c0-20.992-14.301867-38.5024-33.621333-43.758933 2.116267-5.2224 3.310933-10.888533 3.310933-16.930133 0-25.088-20.3776-45.499733-45.499733-45.499733-7.543467 0-14.506667 2.013867-20.718933 5.2224C227.623405 14.677333 206.631405 0 182.089538 0 148.536472 0 121.366339 27.170133 121.366339 60.689066c0 18.363733 8.3968 34.679467 21.333333 45.841066C124.916205 117.248 110.648472 132.881066 101.637272 151.722666L31.732206 151.722666c-3.4816 0-6.485333 2.389333-7.2704 5.768533C23.642606 160.870399 25.281006 164.351999 28.353006 165.887999l62.6688 31.3344L18.113006 233.676799c-2.798933 1.399467-4.437333 4.4032-4.096 7.509333 0.341333 3.106133 2.594133 5.700267 5.632 6.417067l94.754133 23.688533C93.138072 292.044799 73.647939 315.050665 67.572206 324.881065c-13.312 21.2992-6.7584 49.390933 14.574933 62.6688 5.256533 3.310933 10.922667 5.3248 16.6912 6.280533-7.850667 21.0944 0.750933 45.226666 21.1968 56.081066 10.274133 5.358933 21.572267 6.314667 32.017067 3.754667-3.3792 120.627199 73.796266 233.233066 195.003733 269.243732 8.226133 2.4576 16.520533 4.4032 24.814933 6.0416L394.433004 819.199997l13.277867 0 0 44.8512L225.677805 864.051196l-43.588266-43.6224L91.055939 820.428797l60.654933 60.689066-60.654933 60.654933 91.0336 0 43.554133-43.588266 182.067199 0L407.710871 1023.999996l34.133333 0 0-125.815466 183.261866 0L591.689537 945.493329l136.533333-64.375466-136.533333-64.4096 33.416533 47.342933-183.261866 0L441.844204 819.199997l13.312 0 22.562133-90.3168c89.224533-17.783467 166.741333-79.701333 201.284266-168.823466 12.253867-10.308267 26.4192-18.705067 42.632533-23.688533 59.869866-18.432 122.914133 10.8544 148.616533 66.082133 10.820267-25.8048 13.0048-55.432533 4.164267-84.309333-14.882133-48.4352-56.797866-80.930133-104.072533-86.391466C832.705002 406.766932 905.374869 417.143465 958.452202 461.585065z" /></svg>