<?xml version="1.0" standalone="no"?><!DOCTYPE svg PUBLIC "-//W3C//DTD SVG 1.1//EN" "http://www.w3.org/Graphics/SVG/1.1/DTD/svg11.dtd"><svg class="icon" width="200px" height="200.00px" viewBox="0 0 1024 1024" version="1.1" xmlns="http://www.w3.org/2000/svg"><path fill="#333333" d="M128 512h170.666667a213.333333 213.333333 0 0 1 213.333333-213.333333 213.333333 213.333333 0 0 1 213.333333 213.333333h170.666667a42.666667 42.666667 0 0 1 42.666667 42.666667 42.666667 42.666667 0 0 1-42.666667 42.666666H128a42.666667 42.666667 0 0 1-42.666667-42.666666 42.666667 42.666667 0 0 1 42.666667-42.666667m512 0a128 128 0 0 0-128-128 128 128 0 0 0-128 128h256M512 85.333333l101.973333 145.92C582.4 219.733333 547.84 213.333333 512 213.333333c-35.84 0-70.4 6.4-101.973333 17.92L512 85.333333M142.506667 298.666667l177.493333-14.933334A307.2 307.2 0 0 0 253.44 362.666667c-18.773333 31.573333-29.44 64-35.413333 97.706666L142.506667 298.666667m738.56 0l-75.52 161.706666a299.648 299.648 0 0 0-101.546667-177.066666l177.066667 15.36m-338.773334 396.8l132.693334 132.693333a42.496 42.496 0 1 1-60.16 60.16L512 785.493333l-102.826667 102.826667a42.496 42.496 0 1 1-60.16-60.16l132.693334-132.693333c8.96-8.533333 19.2-12.8 30.293333-12.8 11.093333 0 21.333333 4.266667 30.293333 12.8z"  /></svg>