<?xml version="1.0" standalone="no"?><!DOCTYPE svg PUBLIC "-//W3C//DTD SVG 1.1//EN" "http://www.w3.org/Graphics/SVG/1.1/DTD/svg11.dtd"><svg class="icon" width="200px" height="200.00px" viewBox="0 0 1024 1024" version="1.1" xmlns="http://www.w3.org/2000/svg"><path fill="#333333" d="M256 256 285.44 258.56C312.32 158.72 403.626667 85.333333 512 85.333333 641.706667 85.333333 746.666667 190.293333 746.666667 320L743.253333 360.533333C762.88 348.16 785.92 341.333333 810.666667 341.333333 881.493333 341.333333 938.666667 398.506667 938.666667 469.333333 938.666667 540.16 881.493333 597.333333 810.666667 597.333333L256 597.333333C161.706667 597.333333 85.333333 520.96 85.333333 426.666667 85.333333 332.373333 161.706667 256 256 256M256 341.333333C209.066667 341.333333 170.666667 379.733333 170.666667 426.666667 170.666667 473.6 209.066667 512 256 512L810.666667 512C834.133333 512 853.333333 492.8 853.333333 469.333333 853.333333 445.866667 834.133333 426.666667 810.666667 426.666667L661.333333 426.666667 661.333333 320C661.333333 237.653333 594.346667 170.666667 512 170.666667 429.653333 170.666667 362.666667 237.653333 362.666667 320L362.666667 341.333333 256 341.333333M768 768 170.666667 768C147.2 768 128 748.8 128 725.333333 128 701.866667 147.2 682.666667 170.666667 682.666667L768 682.666667C838.826667 682.666667 896 739.84 896 810.666667 896 881.493333 838.826667 938.666667 768 938.666667 732.586667 938.666667 700.586667 924.16 677.546667 901.12 661.333333 884.48 661.333333 857.6 677.546667 840.96 694.186667 824.32 721.066667 824.32 737.706667 840.96 745.386667 848.64 756.053333 853.333333 768 853.333333 791.466667 853.333333 810.666667 834.133333 810.666667 810.666667 810.666667 787.2 791.466667 768 768 768Z" /></svg>