<?xml version="1.0" standalone="no"?><!DOCTYPE svg PUBLIC "-//W3C//DTD SVG 1.1//EN" "http://www.w3.org/Graphics/SVG/1.1/DTD/svg11.dtd"><svg class="icon" width="200px" height="200.00px" viewBox="0 0 1024 1024" version="1.1" xmlns="http://www.w3.org/2000/svg"><path fill="#333333" d="M789.333333 796.586667c0 55.04-42.666667 99.413333-96 99.413333S597.333333 851.626667 597.333333 796.586667c0-66.133333 96-177.92 96-177.92s96 111.786667 96 177.92M170.666667 740.693333c-5.973333-23.04 7.68-47.36 31.146666-53.333333L298.666667 661.333333l-71.253334-69.973333c-17.066667-17.066667-17.066667-44.8 0-62.293333 17.066667-17.066667 45.653333-17.066667 62.293334 0l70.826666 70.4 25.173334-96c5.973333-23.893333 30.293333-37.546667 53.333333-31.146667 23.893333 5.973333 37.546667 30.293333 30.293333 53.76l-24.746666 96 96-24.746667a42.24 42.24 0 0 1 53.76 30.293334c6.4 23.04-7.253333 47.36-31.146667 53.333333l-96 25.173333 70.4 70.826667c17.066667 16.64 17.066667 45.226667 0 62.293333-17.066667 17.066667-45.226667 17.066667-61.866667 0L405.333333 768l-26.026666 96.853333c-5.973333 23.893333-30.293333 37.12-53.333334 31.146667-23.893333-5.973333-37.12-30.293333-31.146666-53.76l25.173333-95.573333-95.573333 25.173333c-23.466667 5.973333-47.786667-7.253333-53.76-31.146667M42.666667 469.333333a213.333333 213.333333 0 0 1 213.333333-213.333333c42.666667-100.266667 140.8-170.666667 256-170.666667 146.346667 0 266.24 113.493333 277.333333 257.28L810.666667 341.333333a170.666667 170.666667 0 0 1 170.666666 170.666667 170.666667 170.666667 0 0 1-170.666666 170.666667 42.666667 42.666667 0 0 1-42.666667-42.666667 42.666667 42.666667 0 0 1 42.666667-42.666667 85.333333 85.333333 0 0 0 85.333333-85.333333 85.333333 85.333333 0 0 0-85.333333-85.333333h-85.333334V384a213.333333 213.333333 0 0 0-213.333333-213.333333C405.333333 170.666667 317.866667 248.32 301.226667 349.44 287.146667 344.32 271.786667 341.333333 256 341.333333a128 128 0 0 0-128 128c0 36.266667 14.933333 68.693333 38.826667 92.16 15.36 16.64 14.933333 42.666667-1.28 58.88a42.496 42.496 0 0 1-60.16 0A212.821333 212.821333 0 0 1 42.666667 469.333333z"  /></svg>