<?xml version="1.0" standalone="no"?><!DOCTYPE svg PUBLIC "-//W3C//DTD SVG 1.1//EN" "http://www.w3.org/Graphics/SVG/1.1/DTD/svg11.dtd"><svg class="icon" width="200px" height="200.00px" viewBox="0 0 1024 1024" version="1.1" xmlns="http://www.w3.org/2000/svg"><path fill="#333333" d="M543.573333 233.386667c100.693333 43.946667 154.026667 151.893333 135.68 255.573333A256.085333 256.085333 0 0 1 768 682.666667v7.253333a128 128 0 0 1 42.666667-7.253333 128 128 0 0 1 128 128 128 128 0 0 1-128 128H256a170.666667 170.666667 0 0 1-170.666667-170.666667 170.666667 170.666667 0 0 1 170.666667-170.666667h11.52C213.333333 531.2 196.266667 436.906667 234.666667 352.426667a234.24 234.24 0 0 1 308.906666-119.04m-34.56 78.08c-75.52-34.133333-163.84 0.426667-197.12 75.52-19.626667 43.52-16.213333 91.733333 4.266667 130.56A255.488 255.488 0 0 1 512 426.666667c29.866667 0 58.88 5.12 85.333333 14.506666a149.589333 149.589333 0 0 0-88.32-129.706666m69.12-156.16c-23.466667-10.24-46.933333-17.493333-71.253333-22.186667l106.24-55.466667 38.4 123.306667a327.253333 327.253333 0 0 0-73.386667-45.653333m-318.293333 34.133333c-20.906667 14.933333-39.253333 32-55.04 50.773333l4.693333-119.893333 126.293334 29.013333c-26.453333 8.96-52.053333 22.613333-75.946667 40.106667M768 414.293333c-3.84-25.173333-9.386667-49.493333-17.493333-72.96l101.546666 64-87.466666 95.146667c4.693333-27.733333 5.546667-56.746667 3.413333-86.186667M129.706667 482.133333c2.986667 25.6 8.533333 49.92 16.64 72.533334l-101.12-64L132.266667 395.946667c-4.266667 27.733333-5.546667 56.746667-2.56 86.186666M810.666667 768h-128v-85.333333a170.666667 170.666667 0 0 0-170.666667-170.666667 170.666667 170.666667 0 0 0-170.666667 170.666667H256a85.333333 85.333333 0 0 0-85.333333 85.333333 85.333333 85.333333 0 0 0 85.333333 85.333333h554.666667a42.666667 42.666667 0 0 0 42.666666-42.666666 42.666667 42.666667 0 0 0-42.666666-42.666667z"  /></svg>