<?xml version="1.0" standalone="no"?><!DOCTYPE svg PUBLIC "-//W3C//DTD SVG 1.1//EN" "http://www.w3.org/Graphics/SVG/1.1/DTD/svg11.dtd"><svg class="icon" width="200px" height="200.00px" viewBox="0 0 1024 1024" version="1.1" xmlns="http://www.w3.org/2000/svg"><path fill="#333333" d="M384 512c22.613333 5.973333 36.266667 29.44 30.293333 52.053333l-55.466666 206.08c-5.973333 23.04-29.44 36.266667-52.053334 30.293334a41.258667 41.258667 0 0 1-29.44-52.053334l54.613334-206.08c5.973333-23.04 29.44-36.266667 52.053333-30.293333m170.666667 0c22.613333 5.973333 36.266667 29.44 30.293333 52.053333l-88.32 329.813334c-5.973333 23.466667-29.44 36.266667-52.48 30.293333-22.613333-6.826667-36.266667-29.44-30.293333-52.48l88.746666-329.386667c5.973333-23.04 29.44-36.266667 52.053334-30.293333m170.666666 0c22.613333 5.973333 36.266667 29.44 30.293334 52.053333l-55.466667 206.08c-5.973333 23.04-29.44 36.266667-52.053333 30.293334a41.258667 41.258667 0 0 1-29.44-52.053334l54.613333-206.08c5.973333-23.04 29.44-36.266667 52.053333-30.293333m0-85.333333V384a213.333333 213.333333 0 0 0-213.333333-213.333333C405.333333 170.666667 317.866667 248.32 301.226667 349.44 287.146667 344.32 271.786667 341.333333 256 341.333333a128 128 0 0 0-128 128c0 47.36 25.6 88.746667 64 110.933334v-0.426667c21.333333 11.946667 27.306667 38.826667 15.786667 58.453333-11.946667 20.053333-37.12 27.306667-58.453334 15.36v0.426667A212.48 212.48 0 0 1 42.666667 469.333333a213.333333 213.333333 0 0 1 213.333333-213.333333c42.666667-100.266667 140.8-170.666667 256-170.666667 146.346667 0 266.24 113.493333 277.333333 257.28L810.666667 341.333333a170.666667 170.666667 0 0 1 170.666666 170.666667c0 64-34.133333 118.186667-85.333333 147.626667-21.333333 11.52-46.506667 4.693333-58.453333-15.786667-11.52-20.48-5.546667-46.506667 15.786666-58.453333v0.426666c25.6-14.506667 42.666667-42.24 42.666667-73.813333a85.333333 85.333333 0 0 0-85.333333-85.333333h-85.333334z"  /></svg>