<?xml version="1.0" standalone="no"?><!DOCTYPE svg PUBLIC "-//W3C//DTD SVG 1.1//EN" "http://www.w3.org/Graphics/SVG/1.1/DTD/svg11.dtd"><svg class="icon" width="200px" height="200.00px" viewBox="0 0 1024 1024" version="1.1" xmlns="http://www.w3.org/2000/svg"><path fill="#333333" d="M757.333333 174.506667 649.386667 257.28 688.213333 387.84 576 310.613333 463.786667 387.84 502.613333 257.28 394.666667 174.506667 530.773333 170.666667 576 42.666667 621.226667 170.666667 757.333333 174.506667M906.666667 469.333333 836.693333 522.666667 861.866667 607.146667 789.333333 557.226667 716.8 607.146667 741.973333 522.666667 672 469.333333 759.893333 467.2 789.333333 384 818.773333 467.2 906.666667 469.333333M809.386667 680.533333C844.8 677.12 882.773333 727.466667 860.16 759.466667 846.506667 778.666667 832 796.586667 814.08 813.653333 647.253333 981.333333 377.173333 981.333333 210.773333 813.653333 43.946667 647.253333 43.946667 376.746667 210.773333 210.346667 227.84 193.28 245.76 177.92 264.96 164.266667 296.96 141.653333 347.306667 179.626667 343.893333 215.04 332.373333 337.066667 373.333333 463.786667 467.2 557.226667 560.64 651.093333 686.933333 692.053333 809.386667 680.533333M739.413333 766.72C618.666667 759.893333 499.2 709.973333 406.613333 618.666667 314.026667 525.226667 264.533333 405.333333 257.706667 285.013333 137.813333 418.986667 142.506667 624.64 270.933333 753.493333 399.786667 881.92 605.44 886.613333 739.413333 766.72Z" /></svg>