<?xml version="1.0" standalone="no"?><!DOCTYPE svg PUBLIC "-//W3C//DTD SVG 1.1//EN" "http://www.w3.org/Graphics/SVG/1.1/DTD/svg11.dtd"><svg class="icon" width="200px" height="200.00px" viewBox="0 0 1024 1024" version="1.1" xmlns="http://www.w3.org/2000/svg"><path fill="#333333" d="M170.666667 426.666667C147.2 426.666667 128 407.466667 128 384 128 360.533333 147.2 341.333333 170.666667 341.333333L512 341.333333C558.933333 341.333333 597.333333 302.933333 597.333333 256 597.333333 209.066667 558.933333 170.666667 512 170.666667 488.533333 170.666667 467.2 180.053333 451.84 195.84 435.2 213.333333 407.893333 213.333333 391.253333 195.84 374.613333 179.2 374.613333 151.893333 391.253333 135.253333 422.4 104.533333 465.066667 85.333333 512 85.333333 606.293333 85.333333 682.666667 161.706667 682.666667 256 682.666667 350.293333 606.293333 426.666667 512 426.666667L170.666667 426.666667M810.666667 512C834.133333 512 853.333333 492.8 853.333333 469.333333 853.333333 445.866667 834.133333 426.666667 810.666667 426.666667 798.72 426.666667 788.053333 431.36 780.373333 439.04 763.733333 455.68 736.853333 455.68 720.213333 439.04 704 422.4 704 395.52 720.213333 378.88 743.253333 355.84 775.253333 341.333333 810.666667 341.333333 881.493333 341.333333 938.666667 398.506667 938.666667 469.333333 938.666667 540.16 881.493333 597.333333 810.666667 597.333333L213.333333 597.333333C189.866667 597.333333 170.666667 578.133333 170.666667 554.666667 170.666667 531.2 189.866667 512 213.333333 512L810.666667 512M768 768 170.666667 768C147.2 768 128 748.8 128 725.333333 128 701.866667 147.2 682.666667 170.666667 682.666667L768 682.666667C838.826667 682.666667 896 739.84 896 810.666667 896 881.493333 838.826667 938.666667 768 938.666667 732.586667 938.666667 700.586667 924.16 677.546667 901.12 661.333333 884.48 661.333333 857.6 677.546667 840.96 694.186667 824.32 721.066667 824.32 737.706667 840.96 745.386667 848.64 756.053333 853.333333 768 853.333333 791.466667 853.333333 810.666667 834.133333 810.666667 810.666667 810.666667 787.2 791.466667 768 768 768Z" /></svg>