<?xml version="1.0" standalone="no"?><!DOCTYPE svg PUBLIC "-//W3C//DTD SVG 1.1//EN" "http://www.w3.org/Graphics/SVG/1.1/DTD/svg11.dtd"><svg class="icon" width="200px" height="200.00px" viewBox="0 0 1024 1024" version="1.1" xmlns="http://www.w3.org/2000/svg"><path fill="#333333" d="M128 512 298.666667 512C298.666667 394.24 394.24 298.666667 512 298.666667 629.76 298.666667 725.333333 394.24 725.333333 512L896 512C919.466667 512 938.666667 531.2 938.666667 554.666667 938.666667 578.133333 919.466667 597.333333 896 597.333333L128 597.333333C104.533333 597.333333 85.333333 578.133333 85.333333 554.666667 85.333333 531.2 104.533333 512 128 512M640 512C640 441.173333 582.826667 384 512 384 441.173333 384 384 441.173333 384 512L640 512M512 85.333333 613.973333 231.253333C582.4 219.733333 547.84 213.333333 512 213.333333 476.16 213.333333 441.6 219.733333 410.026667 231.253333L512 85.333333M142.506667 298.666667 320 283.733333C294.4 305.493333 271.36 331.946667 253.44 362.666667 234.666667 394.24 224 426.666667 218.026667 460.373333L142.506667 298.666667M881.066667 298.666667 805.546667 460.373333C799.573333 426.666667 788.053333 393.813333 770.133333 362.666667 752.213333 331.946667 729.6 305.066667 704 283.306667L881.066667 298.666667M542.293333 883.626667 674.986667 750.933333C691.626667 734.293333 691.626667 706.986667 674.986667 690.346667 658.346667 673.706667 631.466667 673.706667 614.826667 690.346667L512 793.173333 409.173333 690.346667C392.533333 673.706667 365.653333 673.706667 349.013333 690.346667 332.373333 706.986667 332.373333 734.293333 349.013333 750.933333L481.706667 883.626667C490.666667 891.733333 500.906667 896 512 896 523.093333 896 533.333333 891.733333 542.293333 883.626667Z" /></svg>