<?xml version="1.0" standalone="no"?><!DOCTYPE svg PUBLIC "-//W3C//DTD SVG 1.1//EN" "http://www.w3.org/Graphics/SVG/1.1/DTD/svg11.dtd"><svg class="icon" width="200px" height="200.00px" viewBox="0 0 1024 1024" version="1.1" xmlns="http://www.w3.org/2000/svg"><path fill="#333333" d="M256 597.333333a42.666667 42.666667 0 0 1 42.666667 42.666667 42.666667 42.666667 0 0 1-42.666667 42.666667 213.333333 213.333333 0 0 1-213.333333-213.333334 213.333333 213.333333 0 0 1 213.333333-213.333333c42.666667-100.266667 140.8-170.666667 256-170.666667 146.346667 0 266.24 113.493333 277.333333 257.28L810.666667 341.333333a170.666667 170.666667 0 0 1 170.666666 170.666667 170.666667 170.666667 0 0 1-170.666666 170.666667h-42.666667a42.666667 42.666667 0 0 1-42.666667-42.666667 42.666667 42.666667 0 0 1 42.666667-42.666667h42.666667a85.333333 85.333333 0 0 0 85.333333-85.333333 85.333333 85.333333 0 0 0-85.333333-85.333333h-85.333334V384a213.333333 213.333333 0 0 0-213.333333-213.333333C405.333333 170.666667 317.866667 248.32 301.226667 349.44 287.146667 344.32 271.786667 341.333333 256 341.333333a128 128 0 0 0-128 128 128 128 0 0 0 128 128m170.666667 170.666667a85.333333 85.333333 0 0 1 85.333333 85.333333 85.333333 85.333333 0 0 1-85.333333 85.333334 85.333333 85.333333 0 0 1-85.333334-85.333334 85.333333 85.333333 0 0 1 85.333334-85.333333m192-85.333333a64 64 0 0 1 64 64 64 64 0 0 1-64 64 64 64 0 0 1-64-64 64 64 0 0 1 64-64m-170.666667-170.666667a64 64 0 0 1 64 64 64 64 0 0 1-64 64A64 64 0 0 1 384 576a64 64 0 0 1 64-64z"  /></svg>