<?xml version="1.0" standalone="no"?><!DOCTYPE svg PUBLIC "-//W3C//DTD SVG 1.1//EN" "http://www.w3.org/Graphics/SVG/1.1/DTD/svg11.dtd"><svg class="icon" width="200px" height="200.00px" viewBox="0 0 1024 1024" version="1.1" xmlns="http://www.w3.org/2000/svg"><path fill="#333333" d="M256 597.333333a42.666667 42.666667 0 0 1 42.666667 42.666667 42.666667 42.666667 0 0 1-42.666667 42.666667 213.333333 213.333333 0 0 1-213.333333-213.333334 213.333333 213.333333 0 0 1 213.333333-213.333333c42.666667-100.266667 140.8-170.666667 256-170.666667 146.346667 0 266.24 113.493333 277.333333 257.28L810.666667 341.333333a170.666667 170.666667 0 0 1 170.666666 170.666667 170.666667 170.666667 0 0 1-170.666666 170.666667h-42.666667a42.666667 42.666667 0 0 1-42.666667-42.666667 42.666667 42.666667 0 0 1 42.666667-42.666667h42.666667a85.333333 85.333333 0 0 0 85.333333-85.333333 85.333333 85.333333 0 0 0-85.333333-85.333333h-85.333334V384a213.333333 213.333333 0 0 0-213.333333-213.333333C405.333333 170.666667 317.866667 248.32 301.226667 349.44 287.146667 344.32 271.786667 341.333333 256 341.333333a128 128 0 0 0-128 128 128 128 0 0 0 128 128m376.746667 71.253334c66.56 66.56 66.56 163.413333 0 230.826666-33.28 33.28-78.08 39.253333-120.746667 39.253334s-87.466667-5.973333-120.746667-39.253334c-66.56-67.413333-66.56-164.266667 0-230.826666L512 469.333333l120.746667 199.253334m-60.586667 43.52L512 608l-60.16 104.106667c-33.706667 34.56-33.706667 85.76 0 119.893333 17.493333 18.346667 38.826667 21.333333 60.16 21.333333 21.333333 0 42.666667-2.986667 60.16-21.333333 33.706667-34.133333 33.706667-85.333333 0-119.893333z"  /></svg>