<?xml version="1.0" standalone="no"?><!DOCTYPE svg PUBLIC "-//W3C//DTD SVG 1.1//EN" "http://www.w3.org/Graphics/SVG/1.1/DTD/svg11.dtd"><svg class="icon" width="200px" height="200.00px" viewBox="0 0 1024 1024" version="1.1" xmlns="http://www.w3.org/2000/svg"><path fill="#333333" d="M128 512 298.666667 512C298.666667 394.24 394.24 298.666667 512 298.666667 629.76 298.666667 725.333333 394.24 725.333333 512L896 512C919.466667 512 938.666667 531.2 938.666667 554.666667 938.666667 578.133333 919.466667 597.333333 896 597.333333L128 597.333333C104.533333 597.333333 85.333333 578.133333 85.333333 554.666667 85.333333 531.2 104.533333 512 128 512M213.333333 682.666667 810.666667 682.666667C834.133333 682.666667 853.333333 701.866667 853.333333 725.333333 853.333333 748.8 834.133333 768 810.666667 768L213.333333 768C189.866667 768 170.666667 748.8 170.666667 725.333333 170.666667 701.866667 189.866667 682.666667 213.333333 682.666667M725.333333 853.333333C748.8 853.333333 768 872.533333 768 896 768 919.466667 748.8 938.666667 725.333333 938.666667L298.666667 938.666667C275.2 938.666667 256 919.466667 256 896 256 872.533333 275.2 853.333333 298.666667 853.333333L725.333333 853.333333M640 512C640 441.173333 582.826667 384 512 384 441.173333 384 384 441.173333 384 512L640 512M512 85.333333 613.973333 231.253333C582.4 219.733333 547.84 213.333333 512 213.333333 476.16 213.333333 441.6 219.733333 410.026667 231.253333L512 85.333333M142.506667 298.666667 320 283.733333C294.4 305.493333 271.36 331.946667 253.44 362.666667 234.666667 394.24 224 426.666667 218.026667 460.373333L142.506667 298.666667M881.066667 298.666667 805.546667 460.373333C799.573333 426.666667 788.053333 393.813333 770.133333 362.666667 752.213333 331.946667 729.6 305.066667 704 283.306667L881.066667 298.666667Z" /></svg>