<?xml version="1.0" standalone="no"?><!DOCTYPE svg PUBLIC "-//W3C//DTD SVG 1.1//EN" "http://www.w3.org/Graphics/SVG/1.1/DTD/svg11.dtd"><svg class="icon" width="200px" height="200.00px" viewBox="0 0 1024 1024" version="1.1" xmlns="http://www.w3.org/2000/svg"><path fill="#333333" d="M256 810.666667C138.24 810.666667 42.666667 715.093333 42.666667 597.333333 42.666667 479.573333 138.24 384 256 384 298.666667 283.733333 396.8 213.333333 512 213.333333 658.346667 213.333333 778.24 326.826667 789.333333 470.613333L810.666667 469.333333C904.96 469.333333 981.333333 545.706667 981.333333 640 981.333333 734.293333 904.96 810.666667 810.666667 810.666667L256 810.666667M810.666667 554.666667 725.333333 554.666667 725.333333 512C725.333333 394.24 629.76 298.666667 512 298.666667 405.333333 298.666667 317.866667 376.32 301.226667 477.44 287.146667 472.32 271.786667 469.333333 256 469.333333 185.173333 469.333333 128 526.506667 128 597.333333 128 668.16 185.173333 725.333333 256 725.333333L810.666667 725.333333C857.6 725.333333 896 686.933333 896 640 896 593.066667 857.6 554.666667 810.666667 554.666667Z" /></svg>