<?xml version="1.0" standalone="no"?><!DOCTYPE svg PUBLIC "-//W3C//DTD SVG 1.1//EN" "http://www.w3.org/Graphics/SVG/1.1/DTD/svg11.dtd"><svg class="icon" width="200px" height="200.00px" viewBox="0 0 1024 1024" version="1.1" xmlns="http://www.w3.org/2000/svg"><path fill="#333333" d="M192 579.84c21.333333 11.946667 27.306667 38.826667 15.786667 58.453333-11.946667 20.48-37.12 27.306667-58.453334 15.786667A212.48 212.48 0 0 1 42.666667 469.333333a213.333333 213.333333 0 0 1 213.333333-213.333333c42.666667-100.266667 140.8-170.666667 256-170.666667 146.346667 0 266.24 113.493333 277.333333 257.28L810.666667 341.333333a170.666667 170.666667 0 0 1 170.666666 170.666667 170.666667 170.666667 0 0 1-170.666666 170.666667 42.666667 42.666667 0 0 1-42.666667-42.666667 42.666667 42.666667 0 0 1 42.666667-42.666667 85.333333 85.333333 0 0 0 85.333333-85.333333 85.333333 85.333333 0 0 0-85.333333-85.333333h-85.333334V384a213.333333 213.333333 0 0 0-213.333333-213.333333C405.333333 170.666667 317.866667 248.32 301.226667 349.44 287.146667 344.32 271.786667 341.333333 256 341.333333a128 128 0 0 0-128 128c0 47.36 25.6 88.746667 64 110.933334v-0.426667m213.333333-110.506667h128l-85.333333 170.666667h85.333333l-160 298.666667 32-213.333334H298.666667l106.666666-256m341.333334 327.253334c0 55.04-42.666667 99.413333-96 99.413333S554.666667 851.626667 554.666667 796.586667c0-66.133333 96-177.92 96-177.92s96 111.786667 96 177.92z"  /></svg>