<?xml version="1.0" standalone="no"?><!DOCTYPE svg PUBLIC "-//W3C//DTD SVG 1.1//EN" "http://www.w3.org/Graphics/SVG/1.1/DTD/svg11.dtd"><svg class="icon" width="200px" height="200.00px" viewBox="0 0 1024 1024" version="1.1" xmlns="http://www.w3.org/2000/svg"><path fill="#333333" d="M512 298.666667C629.76 298.666667 725.333333 394.24 725.333333 512 725.333333 629.76 629.76 725.333333 512 725.333333 394.24 725.333333 298.666667 629.76 298.666667 512 298.666667 394.24 394.24 298.666667 512 298.666667M512 384C441.173333 384 384 441.173333 384 512 384 582.826667 441.173333 640 512 640 582.826667 640 640 582.826667 640 512 640 441.173333 582.826667 384 512 384M512 85.333333 613.973333 231.253333C582.4 219.733333 547.84 213.333333 512 213.333333 476.16 213.333333 441.6 219.733333 410.026667 231.253333L512 85.333333M142.506667 298.666667 320 283.733333C294.4 305.493333 271.36 331.946667 253.44 362.666667 234.666667 394.24 224 426.666667 218.026667 460.373333L142.506667 298.666667M143.36 725.333333 218.453333 564.48C224.426667 597.333333 235.946667 630.613333 253.866667 661.333333 271.786667 692.906667 294.826667 719.36 320 741.12L143.36 725.333333M881.066667 298.666667 805.546667 460.373333C799.573333 426.666667 788.053333 393.813333 770.133333 362.666667 752.213333 331.946667 729.6 305.066667 704 283.306667L881.066667 298.666667M880.64 725.333333 704 740.693333C729.173333 718.933333 751.786667 692.053333 769.706667 661.333333 787.626667 630.186667 799.146667 597.333333 805.12 563.626667L880.64 725.333333M512 938.666667 409.173333 791.893333C440.746667 803.413333 475.306667 810.666667 512 810.666667 546.986667 810.666667 581.546667 803.413333 613.12 791.893333L512 938.666667Z" /></svg>